<?xml version="1.0" encoding="UTF-8" standalone="no"?>
<!DOCTYPE svg PUBLIC "-//W3C//DTD SVG 1.1//EN"
 "http://www.w3.org/Graphics/SVG/1.1/DTD/svg11.dtd">
<!-- Generated by graphviz version 2.43.0 (0)
 -->
<!-- Title: G Pages: 1 -->
<svg width="1744pt" height="670pt"
 viewBox="0.00 0.00 1743.89 669.87" xmlns="http://www.w3.org/2000/svg" xmlns:xlink="http://www.w3.org/1999/xlink">
<g id="graph0" class="graph" transform="scale(1 1) rotate(0) translate(4 665.87)">
<title>G</title><style>.edge>path:hover{stroke-width:8}</style>
<polygon fill="white" stroke="transparent" points="-4,4 -4,-665.87 1739.89,-665.87 1739.89,4 -4,4"/>
<!-- PIL -->
<g id="node1" class="node">
<title>PIL</title><style>.edge>path:hover{stroke-width:8}</style>
<ellipse fill="#cc3333" stroke="black" cx="380.71" cy="-346.88" rx="27" ry="18"/>
<text text-anchor="middle" x="380.71" y="-343.88" font-family="Helvetica,sans-Serif" font-size="10.00" fill="#ffffff">PIL</text>
</g>
<!-- alignfaces2_make_aligned_faces -->
<g id="node7" class="node">
<title>alignfaces2_make_aligned_faces</title><style>.edge>path:hover{stroke-width:8}</style>
<ellipse fill="#637326" stroke="black" cx="837.71" cy="-91.8" rx="76.35" ry="19.6"/>
<text text-anchor="middle" x="837.71" y="-93.8" font-family="Helvetica,sans-Serif" font-size="10.00" fill="#ffffff">alignfaces2.</text>
<text text-anchor="middle" x="837.71" y="-83.8" font-family="Helvetica,sans-Serif" font-size="10.00" fill="#ffffff">make_aligned_faces</text>
</g>
<!-- PIL&#45;&gt;alignfaces2_make_aligned_faces -->
<g id="edge1" class="edge">
<title>PIL&#45;&gt;alignfaces2_make_aligned_faces</title><style>.edge>path:hover{stroke-width:8}</style>
<path fill="none" stroke="black" d="M668.71,-263.21C695.81,-216.4 670,-187.32 706.71,-147.6 723.77,-129.14 748.01,-116.7 771.02,-108.4"/>
<polygon fill="#cc3333" stroke="black" points="772.43,-111.62 780.77,-105.09 770.18,-104.99 772.43,-111.62"/>
<path fill="none" stroke="black" d="M400.5,-334.46C405.66,-331.78 411.3,-329.12 416.71,-327.08 524.6,-286.34 597.01,-355.54 668.71,-265.21"/>
</g>
<!-- alignfaces2_plot_tools -->
<g id="node10" class="node">
<title>alignfaces2_plot_tools</title><style>.edge>path:hover{stroke-width:8}</style>
<ellipse fill="#8ba135" stroke="black" cx="97.71" cy="-174.47" rx="49.1" ry="19.6"/>
<text text-anchor="middle" x="97.71" y="-176.47" font-family="Helvetica,sans-Serif" font-size="10.00" fill="#000000">alignfaces2.</text>
<text text-anchor="middle" x="97.71" y="-166.47" font-family="Helvetica,sans-Serif" font-size="10.00" fill="#000000">plot_tools</text>
</g>
<!-- PIL&#45;&gt;alignfaces2_plot_tools -->
<g id="edge2" class="edge">
<title>PIL&#45;&gt;alignfaces2_plot_tools</title><style>.edge>path:hover{stroke-width:8}</style>
<path fill="none" stroke="black" d="M382.27,-328.62C383.42,-304.77 381.65,-261.88 357.71,-237.34 329.9,-208.83 222.45,-190.73 154.69,-181.9"/>
<polygon fill="#cc3333" stroke="black" points="154.95,-178.41 144.59,-180.62 154.06,-185.35 154.95,-178.41"/>
</g>
<!-- __main__ -->
<g id="node2" class="node">
<title>__main__</title><style>.edge>path:hover{stroke-width:8}</style>
<ellipse fill="#6b522e" stroke="black" cx="1588.71" cy="-422.48" rx="34.69" ry="18"/>
<text text-anchor="middle" x="1588.71" y="-419.48" font-family="Helvetica,sans-Serif" font-size="10.00" fill="#ffffff">__main__</text>
</g>
<!-- pkg_resources -->
<g id="node22" class="node">
<title>pkg_resources</title><style>.edge>path:hover{stroke-width:8}</style>
<ellipse fill="#563db8" stroke="black" cx="1588.71" cy="-346.88" rx="47.21" ry="18"/>
<text text-anchor="middle" x="1588.71" y="-343.88" font-family="Helvetica,sans-Serif" font-size="10.00" fill="#ffffff">pkg_resources</text>
</g>
<!-- __main__&#45;&gt;pkg_resources -->
<g id="edge3" class="edge">
<title>__main__&#45;&gt;pkg_resources</title><style>.edge>path:hover{stroke-width:8}</style>
<path fill="none" stroke="black" d="M1588.71,-404.41C1588.71,-395.74 1588.71,-384.99 1588.71,-375.21"/>
<polygon fill="#6b522e" stroke="black" points="1592.21,-375.11 1588.71,-365.11 1585.21,-375.11 1592.21,-375.11"/>
</g>
<!-- alignfaces2 -->
<g id="node3" class="node">
<title>alignfaces2</title><style>.edge>path:hover{stroke-width:8}</style>
<ellipse fill="#aecc33" stroke="black" cx="837.71" cy="-18" rx="38.39" ry="18"/>
<text text-anchor="middle" x="837.71" y="-15" font-family="Helvetica,sans-Serif" font-size="10.00" fill="#000000">alignfaces2</text>
</g>
<!-- alignfaces2_aperture_tools -->
<g id="node4" class="node">
<title>alignfaces2_aperture_tools</title><style>.edge>path:hover{stroke-width:8}</style>
<ellipse fill="#99b03a" stroke="black" cx="772.71" cy="-174.47" rx="56.54" ry="19.6"/>
<text text-anchor="middle" x="772.71" y="-176.47" font-family="Helvetica,sans-Serif" font-size="10.00" fill="#000000">alignfaces2.</text>
<text text-anchor="middle" x="772.71" y="-166.47" font-family="Helvetica,sans-Serif" font-size="10.00" fill="#000000">aperture_tools</text>
</g>
<!-- alignfaces2_aperture_tools&#45;&gt;alignfaces2_make_aligned_faces -->
<g id="edge4" class="edge">
<title>alignfaces2_aperture_tools&#45;&gt;alignfaces2_make_aligned_faces</title><style>.edge>path:hover{stroke-width:8}</style>
<path fill="none" stroke="black" d="M787.46,-155.16C796.04,-144.51 807.01,-130.9 816.5,-119.12"/>
<polygon fill="#99b03a" stroke="black" points="819.25,-121.29 822.79,-111.31 813.79,-116.9 819.25,-121.29"/>
</g>
<!-- alignfaces2_contrast_tools -->
<g id="node5" class="node">
<title>alignfaces2_contrast_tools</title><style>.edge>path:hover{stroke-width:8}</style>
<ellipse fill="#99b03a" stroke="black" cx="902.71" cy="-174.47" rx="55.17" ry="19.6"/>
<text text-anchor="middle" x="902.71" y="-176.47" font-family="Helvetica,sans-Serif" font-size="10.00" fill="#000000">alignfaces2.</text>
<text text-anchor="middle" x="902.71" y="-166.47" font-family="Helvetica,sans-Serif" font-size="10.00" fill="#000000">contrast_tools</text>
</g>
<!-- alignfaces2_contrast_tools&#45;&gt;alignfaces2_make_aligned_faces -->
<g id="edge5" class="edge">
<title>alignfaces2_contrast_tools&#45;&gt;alignfaces2_make_aligned_faces</title><style>.edge>path:hover{stroke-width:8}</style>
<path fill="none" stroke="black" d="M887.96,-155.16C879.38,-144.51 868.41,-130.9 858.92,-119.12"/>
<polygon fill="#99b03a" stroke="black" points="861.63,-116.9 852.63,-111.31 856.18,-121.29 861.63,-116.9"/>
</g>
<!-- alignfaces2_face_landmarks -->
<g id="node6" class="node">
<title>alignfaces2_face_landmarks</title><style>.edge>path:hover{stroke-width:8}</style>
<ellipse fill="#71822b" stroke="black" cx="1074.71" cy="-174.47" rx="61.46" ry="19.6"/>
<text text-anchor="middle" x="1074.71" y="-176.47" font-family="Helvetica,sans-Serif" font-size="10.00" fill="#ffffff">alignfaces2.</text>
<text text-anchor="middle" x="1074.71" y="-166.47" font-family="Helvetica,sans-Serif" font-size="10.00" fill="#ffffff">face_landmarks</text>
</g>
<!-- alignfaces2_face_landmarks&#45;&gt;alignfaces2_make_aligned_faces -->
<g id="edge6" class="edge">
<title>alignfaces2_face_landmarks&#45;&gt;alignfaces2_make_aligned_faces</title><style>.edge>path:hover{stroke-width:8}</style>
<path fill="none" stroke="black" d="M1034.25,-159.46C1023.06,-155.6 1010.92,-151.43 999.71,-147.6 963.96,-135.39 923.73,-121.78 892.31,-111.18"/>
<polygon fill="#71822b" stroke="black" points="893.02,-107.72 882.43,-107.85 890.79,-114.36 893.02,-107.72"/>
</g>
<!-- alignfaces2_make_aligned_faces&#45;&gt;alignfaces2 -->
<g id="edge7" class="edge">
<title>alignfaces2_make_aligned_faces&#45;&gt;alignfaces2</title><style>.edge>path:hover{stroke-width:8}</style>
<path fill="none" stroke="black" d="M837.71,-71.93C837.71,-64.02 837.71,-54.66 837.71,-46.04"/>
<polygon fill="#637326" stroke="black" points="841.21,-46.02 837.71,-36.02 834.21,-46.02 841.21,-46.02"/>
</g>
<!-- alignfaces2_make_files -->
<g id="node8" class="node">
<title>alignfaces2_make_files</title><style>.edge>path:hover{stroke-width:8}</style>
<ellipse fill="#a9c247" stroke="black" cx="1202.71" cy="-174.47" rx="49.1" ry="19.6"/>
<text text-anchor="middle" x="1202.71" y="-176.47" font-family="Helvetica,sans-Serif" font-size="10.00" fill="#000000">alignfaces2.</text>
<text text-anchor="middle" x="1202.71" y="-166.47" font-family="Helvetica,sans-Serif" font-size="10.00" fill="#000000">make_files</text>
</g>
<!-- alignfaces2_make_files&#45;&gt;alignfaces2_make_aligned_faces -->
<g id="edge8" class="edge">
<title>alignfaces2_make_files&#45;&gt;alignfaces2_make_aligned_faces</title><style>.edge>path:hover{stroke-width:8}</style>
<path fill="none" stroke="black" d="M1173.14,-158.62C1164.18,-154.58 1154.2,-150.51 1144.71,-147.6 1069.09,-124.36 979.78,-109.8 917.04,-101.58"/>
<polygon fill="#a9c247" stroke="black" points="917.18,-98.07 906.82,-100.26 916.29,-105.01 917.18,-98.07"/>
</g>
<!-- alignfaces2_phase_cong_3 -->
<g id="node9" class="node">
<title>alignfaces2_phase_cong_3</title><style>.edge>path:hover{stroke-width:8}</style>
<ellipse fill="#98ac49" stroke="black" cx="57.71" cy="-498.07" rx="57.92" ry="19.6"/>
<text text-anchor="middle" x="57.71" y="-500.07" font-family="Helvetica,sans-Serif" font-size="10.00" fill="#000000">alignfaces2.</text>
<text text-anchor="middle" x="57.71" y="-490.07" font-family="Helvetica,sans-Serif" font-size="10.00" fill="#000000">phase_cong_3</text>
</g>
<!-- alignfaces2_plot_tools&#45;&gt;alignfaces2_make_aligned_faces -->
<g id="edge9" class="edge">
<title>alignfaces2_plot_tools&#45;&gt;alignfaces2_make_aligned_faces</title><style>.edge>path:hover{stroke-width:8}</style>
<path fill="none" stroke="black" d="M144.56,-168.36C268.17,-154.89 604.16,-118.26 758.39,-101.45"/>
<polygon fill="#8ba135" stroke="black" points="759.17,-104.88 768.73,-100.32 758.41,-97.92 759.17,-104.88"/>
</g>
<!-- alignfaces2_procrustes_tools -->
<g id="node11" class="node">
<title>alignfaces2_procrustes_tools</title><style>.edge>path:hover{stroke-width:8}</style>
<ellipse fill="#a0bc2f" stroke="black" cx="668.71" cy="-346.88" rx="63.39" ry="19.6"/>
<text text-anchor="middle" x="668.71" y="-348.88" font-family="Helvetica,sans-Serif" font-size="10.00" fill="#000000">alignfaces2.</text>
<text text-anchor="middle" x="668.71" y="-338.88" font-family="Helvetica,sans-Serif" font-size="10.00" fill="#000000">procrustes_tools</text>
</g>
<!-- alignfaces2_procrustes_tools&#45;&gt;alignfaces2_make_aligned_faces -->
<g id="edge10" class="edge">
<title>alignfaces2_procrustes_tools&#45;&gt;alignfaces2_make_aligned_faces</title><style>.edge>path:hover{stroke-width:8}</style>
<path fill="none" stroke="black" d="M663.63,-326.89C660.13,-309.6 657.83,-283.99 668.71,-265.21"/>
</g>
<!-- alignfaces2_tests_test_procrustes_tools -->
<g id="node13" class="node">
<title>alignfaces2_tests_test_procrustes_tools</title><style>.edge>path:hover{stroke-width:8}</style>
<ellipse fill="#92a446" stroke="black" cx="541.71" cy="-174.47" rx="78.55" ry="26.74"/>
<text text-anchor="middle" x="541.71" y="-181.47" font-family="Helvetica,sans-Serif" font-size="10.00" fill="#000000">alignfaces2.</text>
<text text-anchor="middle" x="541.71" y="-171.47" font-family="Helvetica,sans-Serif" font-size="10.00" fill="#000000">tests.</text>
<text text-anchor="middle" x="541.71" y="-161.47" font-family="Helvetica,sans-Serif" font-size="10.00" fill="#000000">test_procrustes_tools</text>
</g>
<!-- alignfaces2_procrustes_tools&#45;&gt;alignfaces2_tests_test_procrustes_tools -->
<g id="edge11" class="edge">
<title>alignfaces2_procrustes_tools&#45;&gt;alignfaces2_tests_test_procrustes_tools</title><style>.edge>path:hover{stroke-width:8}</style>
<path fill="none" stroke="black" d="M654.88,-327.32C633.69,-298.89 592.89,-244.14 566.5,-208.73"/>
<polygon fill="#a0bc2f" stroke="black" points="569.23,-206.54 560.45,-200.62 563.62,-210.73 569.23,-206.54"/>
</g>
<!-- alignfaces2_procrustes_tools_rohlf -->
<g id="node12" class="node">
<title>alignfaces2_procrustes_tools_rohlf</title><style>.edge>path:hover{stroke-width:8}</style>
<ellipse fill="#92a446" stroke="black" cx="506.71" cy="-346.88" rx="80.76" ry="19.6"/>
<text text-anchor="middle" x="506.71" y="-348.88" font-family="Helvetica,sans-Serif" font-size="10.00" fill="#000000">alignfaces2.</text>
<text text-anchor="middle" x="506.71" y="-338.88" font-family="Helvetica,sans-Serif" font-size="10.00" fill="#000000">procrustes_tools_rohlf</text>
</g>
<!-- alignfaces2_tests_test_warp_tools -->
<g id="node14" class="node">
<title>alignfaces2_tests_test_warp_tools</title><style>.edge>path:hover{stroke-width:8}</style>
<ellipse fill="#92a446" stroke="black" cx="287.71" cy="-264.21" rx="60.68" ry="26.74"/>
<text text-anchor="middle" x="287.71" y="-271.21" font-family="Helvetica,sans-Serif" font-size="10.00" fill="#000000">alignfaces2.</text>
<text text-anchor="middle" x="287.71" y="-261.21" font-family="Helvetica,sans-Serif" font-size="10.00" fill="#000000">tests.</text>
<text text-anchor="middle" x="287.71" y="-251.21" font-family="Helvetica,sans-Serif" font-size="10.00" fill="#000000">test_warp_tools</text>
</g>
<!-- alignfaces2_warp_tools -->
<g id="node15" class="node">
<title>alignfaces2_warp_tools</title><style>.edge>path:hover{stroke-width:8}</style>
<ellipse fill="#a0bc2f" stroke="black" cx="456.71" cy="-422.48" rx="49.1" ry="19.6"/>
<text text-anchor="middle" x="456.71" y="-424.48" font-family="Helvetica,sans-Serif" font-size="10.00" fill="#000000">alignfaces2.</text>
<text text-anchor="middle" x="456.71" y="-414.48" font-family="Helvetica,sans-Serif" font-size="10.00" fill="#000000">warp_tools</text>
</g>
<!-- alignfaces2_warp_tools&#45;&gt;alignfaces2_make_aligned_faces -->
<g id="edge12" class="edge">
<title>alignfaces2_warp_tools&#45;&gt;alignfaces2_make_aligned_faces</title><style>.edge>path:hover{stroke-width:8}</style>
<path fill="none" stroke="black" d="M325.71,-345.88C324.51,-342.83 450.95,-149.37 453.71,-147.6 501.91,-116.73 655.4,-102.69 753.11,-96.75"/>
<polygon fill="#a0bc2f" stroke="black" points="753.49,-100.23 763.27,-96.14 753.08,-93.24 753.49,-100.23"/>
</g>
<!-- alignfaces2_warp_tools&#45;&gt;alignfaces2_tests_test_warp_tools -->
<g id="edge13" class="edge">
<title>alignfaces2_warp_tools&#45;&gt;alignfaces2_tests_test_warp_tools</title><style>.edge>path:hover{stroke-width:8}</style>
<path fill="none" stroke="black" d="M414.3,-412.52C381.68,-402.93 339.87,-383.94 325.71,-347.88"/>
<path fill="none" stroke="black" d="M325.71,-345.88C319.69,-330.54 312.11,-314.01 305.3,-299.93"/>
<polygon fill="#a0bc2f" stroke="black" points="308.28,-298.06 300.74,-290.62 302,-301.14 308.28,-298.06"/>
</g>
<!-- cv2 -->
<g id="node16" class="node">
<title>cv2</title><style>.edge>path:hover{stroke-width:8}</style>
<ellipse fill="#67b653" stroke="black" cx="57.71" cy="-643.87" rx="27" ry="18"/>
<text text-anchor="middle" x="57.71" y="-640.87" font-family="Helvetica,sans-Serif" font-size="10.00" fill="#000000">cv2</text>
</g>
<!-- cv2&#45;&gt;alignfaces2_phase_cong_3 -->
<g id="edge14" class="edge">
<title>cv2&#45;&gt;alignfaces2_phase_cong_3</title><style>.edge>path:hover{stroke-width:8}</style>
<path fill="none" stroke="black" d="M57.71,-625.81C57.71,-601.69 57.71,-557.31 57.71,-527.99"/>
<polygon fill="#67b653" stroke="black" points="61.21,-527.93 57.71,-517.93 54.21,-527.93 61.21,-527.93"/>
</g>
<!-- dlib -->
<g id="node17" class="node">
<title>dlib</title><style>.edge>path:hover{stroke-width:8}</style>
<ellipse fill="#47c278" stroke="black" cx="1128.71" cy="-346.88" rx="27" ry="18"/>
<text text-anchor="middle" x="1128.71" y="-343.88" font-family="Helvetica,sans-Serif" font-size="10.00" fill="#000000">dlib</text>
</g>
<!-- dlib&#45;&gt;alignfaces2_face_landmarks -->
<g id="edge15" class="edge">
<title>dlib&#45;&gt;alignfaces2_face_landmarks</title><style>.edge>path:hover{stroke-width:8}</style>
<path fill="none" stroke="black" d="M1023.71,-263.21C1013.96,-241.12 1029.26,-217.55 1045.58,-200.4"/>
<polygon fill="#47c278" stroke="black" points="1048.41,-202.52 1053.07,-193 1043.49,-197.54 1048.41,-202.52"/>
</g>
<!-- dlib&#45;&gt;alignfaces2_make_aligned_faces -->
<g id="edge16" class="edge">
<title>dlib&#45;&gt;alignfaces2_make_aligned_faces</title><style>.edge>path:hover{stroke-width:8}</style>
<path fill="none" stroke="black" d="M1109.12,-334.06C1081.12,-316.69 1032.11,-284.24 1023.71,-265.21"/>
<path fill="none" stroke="black" d="M1023.71,-263.21C1006.55,-224.33 1007.22,-212.12 985.71,-175.47"/>
</g>
<!-- matplotlib -->
<g id="node18" class="node">
<title>matplotlib</title><style>.edge>path:hover{stroke-width:8}</style>
<ellipse fill="#23c8c8" stroke="black" cx="179.71" cy="-346.88" rx="33.89" ry="18"/>
<text text-anchor="middle" x="179.71" y="-343.88" font-family="Helvetica,sans-Serif" font-size="10.00" fill="#000000">matplotlib</text>
</g>
<!-- matplotlib&#45;&gt;alignfaces2_plot_tools -->
<g id="edge17" class="edge">
<title>matplotlib&#45;&gt;alignfaces2_plot_tools</title><style>.edge>path:hover{stroke-width:8}</style>
<path fill="none" stroke="black" d="M177.6,-328.91C175.09,-312.16 170.02,-286.11 160.71,-265.21"/>
</g>
<!-- matplotlib_patches -->
<g id="node19" class="node">
<title>matplotlib_patches</title><style>.edge>path:hover{stroke-width:8}</style>
<ellipse fill="#3db8b8" stroke="black" cx="215.71" cy="-498.07" rx="43.58" ry="19.6"/>
<text text-anchor="middle" x="215.71" y="-500.07" font-family="Helvetica,sans-Serif" font-size="10.00" fill="#000000">matplotlib.</text>
<text text-anchor="middle" x="215.71" y="-490.07" font-family="Helvetica,sans-Serif" font-size="10.00" fill="#000000">patches</text>
</g>
<!-- matplotlib_patches&#45;&gt;alignfaces2_plot_tools -->
<g id="edge18" class="edge">
<title>matplotlib_patches&#45;&gt;alignfaces2_plot_tools</title><style>.edge>path:hover{stroke-width:8}</style>
<path fill="none" stroke="black" d="M221.57,-478.26C230.59,-445.86 244.65,-378.09 222.71,-327.08 207.33,-291.32 177.74,-300.21 160.71,-265.21"/>
</g>
<!-- matplotlib_pyplot -->
<g id="node20" class="node">
<title>matplotlib_pyplot</title><style>.edge>path:hover{stroke-width:8}</style>
<ellipse fill="#3ab0b0" stroke="black" cx="151.71" cy="-422.48" rx="43.58" ry="19.6"/>
<text text-anchor="middle" x="151.71" y="-424.48" font-family="Helvetica,sans-Serif" font-size="10.00" fill="#000000">matplotlib.</text>
<text text-anchor="middle" x="151.71" y="-414.48" font-family="Helvetica,sans-Serif" font-size="10.00" fill="#000000">pyplot</text>
</g>
<!-- matplotlib_patches&#45;&gt;matplotlib_pyplot -->
<g id="edge19" class="edge">
<title>matplotlib_patches&#45;&gt;matplotlib_pyplot</title><style>.edge>path:hover{stroke-width:8}</style>
<path fill="none" stroke="black" d="M200.22,-479.26C192.28,-470.13 182.47,-458.85 173.76,-448.83"/>
<polygon fill="#3db8b8" stroke="black" points="176.26,-446.38 167.06,-441.13 170.98,-450.97 176.26,-446.38"/>
</g>
<!-- matplotlib_pyplot&#45;&gt;alignfaces2_plot_tools -->
<g id="edge20" class="edge">
<title>matplotlib_pyplot&#45;&gt;alignfaces2_plot_tools</title><style>.edge>path:hover{stroke-width:8}</style>
<path fill="none" stroke="black" d="M145.24,-402.71C141.97,-392.25 138.35,-378.9 136.71,-366.68 134.37,-349.23 133.47,-344.38 136.71,-327.08 142.14,-298.09 172.71,-292.15 160.71,-265.21"/>
<path fill="none" stroke="black" d="M160.71,-263.21C149.88,-240.95 133.47,-218.32 120.11,-201.62"/>
<polygon fill="#3ab0b0" stroke="black" points="122.49,-198.99 113.45,-193.46 117.06,-203.42 122.49,-198.99"/>
</g>
<!-- matplotlib_pyplot&#45;&gt;matplotlib -->
<g id="edge21" class="edge">
<title>matplotlib_pyplot&#45;&gt;matplotlib</title><style>.edge>path:hover{stroke-width:8}</style>
<path fill="none" stroke="black" d="M158.78,-402.9C162.09,-394.18 166.11,-383.63 169.73,-374.11"/>
<polygon fill="#3ab0b0" stroke="black" points="173.03,-375.27 173.32,-364.68 166.49,-372.78 173.03,-375.27"/>
</g>
<!-- numpy -->
<g id="node21" class="node">
<title>numpy</title><style>.edge>path:hover{stroke-width:8}</style>
<ellipse fill="#0667f9" stroke="black" cx="587.71" cy="-643.87" rx="27" ry="18"/>
<text text-anchor="middle" x="587.71" y="-640.87" font-family="Helvetica,sans-Serif" font-size="10.00" fill="#ffffff">numpy</text>
</g>
<!-- numpy&#45;&gt;alignfaces2_aperture_tools -->
<g id="edge22" class="edge">
<title>numpy&#45;&gt;alignfaces2_aperture_tools</title><style>.edge>path:hover{stroke-width:8}</style>
<path fill="none" stroke="black" d="M895.71,-421.48C841.58,-402.32 813.21,-412.58 778.71,-366.68 751.28,-330.18 768.35,-310.51 762.71,-265.21"/>
<path fill="none" stroke="black" d="M762.71,-263.21C759.7,-243.63 762.28,-221.47 765.57,-204.32"/>
<polygon fill="#0667f9" stroke="black" points="769.03,-204.86 767.66,-194.35 762.18,-203.42 769.03,-204.86"/>
</g>
<!-- numpy&#45;&gt;alignfaces2_contrast_tools -->
<g id="edge23" class="edge">
<title>numpy&#45;&gt;alignfaces2_contrast_tools</title><style>.edge>path:hover{stroke-width:8}</style>
<path fill="none" stroke="black" d="M895.71,-421.48C875.63,-414.21 891.18,-268.24 898.96,-204.65"/>
<polygon fill="#0667f9" stroke="black" points="902.46,-204.84 900.22,-194.49 895.52,-203.98 902.46,-204.84"/>
</g>
<!-- numpy&#45;&gt;alignfaces2_face_landmarks -->
<g id="edge24" class="edge">
<title>numpy&#45;&gt;alignfaces2_face_landmarks</title><style>.edge>path:hover{stroke-width:8}</style>
<path fill="none" stroke="black" d="M1513.71,-497.07C1472.77,-444.91 1523.61,-413.44 1513.71,-347.88"/>
</g>
<!-- numpy&#45;&gt;alignfaces2_make_aligned_faces -->
<g id="edge25" class="edge">
<title>numpy&#45;&gt;alignfaces2_make_aligned_faces</title><style>.edge>path:hover{stroke-width:8}</style>
<path fill="none" stroke="black" d="M143.71,-497.07C126.87,-470.44 109.42,-471.91 98.71,-442.27 71.98,-368.26 105.21,-343.55 97.71,-265.21"/>
<path fill="none" stroke="black" d="M215.71,-570.87C179.02,-544.48 166.12,-538.32 143.71,-499.07"/>
<path fill="none" stroke="black" d="M97.71,-263.21C91.24,-226.08 53.57,-236.39 39.71,-201.34 30.93,-179.13 23.41,-165.06 39.71,-147.6 87.46,-96.46 554.52,-91.88 751.16,-92.24"/>
<polygon fill="#0667f9" stroke="black" points="751.44,-95.74 761.45,-92.26 751.46,-88.74 751.44,-95.74"/>
</g>
<!-- numpy&#45;&gt;alignfaces2_phase_cong_3 -->
<g id="edge26" class="edge">
<title>numpy&#45;&gt;alignfaces2_phase_cong_3</title><style>.edge>path:hover{stroke-width:8}</style>
<path fill="none" stroke="black" d="M215.71,-570.87C182.96,-546.73 140.8,-528.08 108.27,-515.85"/>
<polygon fill="#0667f9" stroke="black" points="109.1,-512.42 98.51,-512.26 106.68,-518.99 109.1,-512.42"/>
<path fill="none" stroke="black" d="M560.83,-640.83C484.97,-634.59 271.12,-613.72 215.71,-572.87"/>
</g>
<!-- numpy&#45;&gt;alignfaces2_plot_tools -->
<g id="edge27" class="edge">
<title>numpy&#45;&gt;alignfaces2_plot_tools</title><style>.edge>path:hover{stroke-width:8}</style>
<path fill="none" stroke="black" d="M97.71,-263.21C95.85,-243.8 95.85,-221.87 96.32,-204.79"/>
<polygon fill="#0667f9" stroke="black" points="99.83,-204.46 96.67,-194.34 92.83,-204.22 99.83,-204.46"/>
</g>
<!-- numpy&#45;&gt;alignfaces2_procrustes_tools -->
<g id="edge28" class="edge">
<title>numpy&#45;&gt;alignfaces2_procrustes_tools</title><style>.edge>path:hover{stroke-width:8}</style>
<path fill="none" stroke="black" d="M1513.71,-570.87C1517.82,-539.23 1533.41,-524.18 1513.71,-499.07"/>
<path fill="none" stroke="black" d="M895.71,-421.48C836.76,-400.62 768.42,-378.77 722.25,-364.35"/>
<polygon fill="#0667f9" stroke="black" points="723.05,-360.94 712.46,-361.3 720.97,-367.62 723.05,-360.94"/>
<path fill="none" stroke="black" d="M1513.71,-497.07C1428.32,-388.28 1026.09,-469.61 895.71,-423.48"/>
</g>
<!-- numpy&#45;&gt;alignfaces2_procrustes_tools_rohlf -->
<g id="edge29" class="edge">
<title>numpy&#45;&gt;alignfaces2_procrustes_tools_rohlf</title><style>.edge>path:hover{stroke-width:8}</style>
<path fill="none" stroke="black" d="M533.71,-497.07C529.19,-486.16 517.74,-417.23 511.3,-376.98"/>
<polygon fill="#0667f9" stroke="black" points="514.73,-376.27 509.7,-366.95 507.81,-377.37 514.73,-376.27"/>
</g>
<!-- numpy&#45;&gt;alignfaces2_tests_test_procrustes_tools -->
<g id="edge30" class="edge">
<title>numpy&#45;&gt;alignfaces2_tests_test_procrustes_tools</title><style>.edge>path:hover{stroke-width:8}</style>
<path fill="none" stroke="black" d="M287.71,-421.48C279.59,-389.79 295.71,-379.6 287.71,-347.88"/>
<path fill="none" stroke="black" d="M287.71,-345.88C278.05,-307.56 235.01,-326.6 217.71,-291.08 207.25,-269.61 202.49,-255.74 217.71,-237.34 247.2,-201.68 368.57,-186.39 454.07,-179.96"/>
<polygon fill="#0667f9" stroke="black" points="454.32,-183.45 464.04,-179.23 453.82,-176.47 454.32,-183.45"/>
</g>
<!-- numpy&#45;&gt;alignfaces2_tests_test_warp_tools -->
<g id="edge31" class="edge">
<title>numpy&#45;&gt;alignfaces2_tests_test_warp_tools</title><style>.edge>path:hover{stroke-width:8}</style>
<path fill="none" stroke="black" d="M287.71,-345.88C284.14,-331.7 283.48,-315.67 283.95,-301.66"/>
<polygon fill="#0667f9" stroke="black" points="287.46,-301.57 284.5,-291.4 280.47,-301.2 287.46,-301.57"/>
</g>
<!-- numpy&#45;&gt;alignfaces2_warp_tools -->
<g id="edge32" class="edge">
<title>numpy&#45;&gt;alignfaces2_warp_tools</title><style>.edge>path:hover{stroke-width:8}</style>
<path fill="none" stroke="black" d="M533.71,-497.07C528.41,-474.98 510.45,-457.13 493.21,-444.55"/>
<polygon fill="#0667f9" stroke="black" points="495.09,-441.59 484.87,-438.8 491.12,-447.36 495.09,-441.59"/>
<path fill="none" stroke="black" d="M580.02,-626.47C568.05,-600.2 545.16,-546.79 533.71,-499.07"/>
</g>
<!-- numpy&#45;&gt;matplotlib -->
<g id="edge33" class="edge">
<title>numpy&#45;&gt;matplotlib</title><style>.edge>path:hover{stroke-width:8}</style>
<path fill="none" stroke="black" d="M215.71,-570.87C188.9,-551.1 252.97,-547.23 268.71,-517.87 288.93,-480.15 300.77,-464.23 287.71,-423.48"/>
<path fill="none" stroke="black" d="M287.71,-421.48C279.57,-389.72 246.23,-370.37 218.71,-359.53"/>
<polygon fill="#0667f9" stroke="black" points="219.87,-356.23 209.28,-356.05 217.45,-362.8 219.87,-356.23"/>
</g>
<!-- numpy&#45;&gt;matplotlib_patches -->
<g id="edge34" class="edge">
<title>numpy&#45;&gt;matplotlib_patches</title><style>.edge>path:hover{stroke-width:8}</style>
<path fill="none" stroke="black" d="M215.71,-570.87C202.79,-561.35 202.87,-543.23 206.14,-527.58"/>
<polygon fill="#0667f9" stroke="black" points="209.56,-528.33 208.64,-517.77 202.78,-526.59 209.56,-528.33"/>
</g>
<!-- numpy&#45;&gt;matplotlib_pyplot -->
<g id="edge35" class="edge">
<title>numpy&#45;&gt;matplotlib_pyplot</title><style>.edge>path:hover{stroke-width:8}</style>
<path fill="none" stroke="black" d="M143.71,-497.07C135.36,-483.87 136.74,-466.62 140.5,-452.14"/>
<polygon fill="#0667f9" stroke="black" points="143.96,-452.77 143.54,-442.18 137.27,-450.72 143.96,-452.77"/>
</g>
<!-- scipy -->
<g id="node23" class="node">
<title>scipy</title><style>.edge>path:hover{stroke-width:8}</style>
<ellipse fill="#bd0ce9" stroke="black" cx="615.71" cy="-571.87" rx="27" ry="18"/>
<text text-anchor="middle" x="615.71" y="-568.87" font-family="Helvetica,sans-Serif" font-size="10.00" fill="#ffffff">scipy</text>
</g>
<!-- numpy&#45;&gt;scipy -->
<g id="edge36" class="edge">
<title>numpy&#45;&gt;scipy</title><style>.edge>path:hover{stroke-width:8}</style>
<path fill="none" stroke="black" d="M594.35,-626.28C597.62,-618.09 601.65,-608.01 605.33,-598.83"/>
<polygon fill="#0667f9" stroke="black" points="608.66,-599.93 609.12,-589.34 602.16,-597.33 608.66,-599.93"/>
</g>
<!-- scipy_linalg -->
<g id="node24" class="node">
<title>scipy_linalg</title><style>.edge>path:hover{stroke-width:8}</style>
<ellipse fill="#9f3db8" stroke="black" cx="1090.71" cy="-498.07" rx="37.1" ry="18"/>
<text text-anchor="middle" x="1090.71" y="-495.07" font-family="Helvetica,sans-Serif" font-size="10.00" fill="#ffffff">scipy.linalg</text>
</g>
<!-- numpy&#45;&gt;scipy_linalg -->
<g id="edge37" class="edge">
<title>numpy&#45;&gt;scipy_linalg</title><style>.edge>path:hover{stroke-width:8}</style>
<path fill="none" stroke="black" d="M1513.71,-570.87C1518.59,-533.3 1248.58,-510.1 1137.5,-502.16"/>
<polygon fill="#0667f9" stroke="black" points="1137.48,-498.65 1127.26,-501.44 1136.99,-505.63 1137.48,-498.65"/>
<path fill="none" stroke="black" d="M614.73,-642.26C766.65,-638.67 1507.75,-618.79 1513.71,-572.87"/>
</g>
<!-- pkg_resources&#45;&gt;alignfaces2_face_landmarks -->
<g id="edge38" class="edge">
<title>pkg_resources&#45;&gt;alignfaces2_face_landmarks</title><style>.edge>path:hover{stroke-width:8}</style>
<path fill="none" stroke="black" d="M1551.87,-335.46C1523.91,-326.46 1485.35,-311.66 1455.71,-291.08 1442.83,-282.13 1440.05,-278.49 1431.71,-265.21"/>
</g>
<!-- scipy&#45;&gt;alignfaces2_procrustes_tools -->
<g id="edge39" class="edge">
<title>scipy&#45;&gt;alignfaces2_procrustes_tools</title><style>.edge>path:hover{stroke-width:8}</style>
<path fill="none" stroke="black" d="M668.71,-421.48C662.7,-407.65 662.23,-390.95 663.47,-376.95"/>
<polygon fill="#bd0ce9" stroke="black" points="666.96,-377.21 664.69,-366.86 660.01,-376.37 666.96,-377.21"/>
</g>
<!-- scipy&#45;&gt;alignfaces2_procrustes_tools_rohlf -->
<g id="edge40" class="edge">
<title>scipy&#45;&gt;alignfaces2_procrustes_tools_rohlf</title><style>.edge>path:hover{stroke-width:8}</style>
<path fill="none" stroke="black" d="M668.71,-421.48C659.77,-400.91 608.86,-380 566.47,-365.75"/>
<polygon fill="#bd0ce9" stroke="black" points="567.33,-362.35 556.74,-362.54 565.14,-369 567.33,-362.35"/>
<path fill="none" stroke="black" d="M668.71,-497.07C663.36,-464.8 681.75,-453.48 668.71,-423.48"/>
</g>
<!-- scipy&#45;&gt;alignfaces2_warp_tools -->
<g id="edge41" class="edge">
<title>scipy&#45;&gt;alignfaces2_warp_tools</title><style>.edge>path:hover{stroke-width:8}</style>
<path fill="none" stroke="black" d="M668.71,-497.07C663.33,-464.62 572.82,-442.96 511.82,-431.97"/>
<polygon fill="#bd0ce9" stroke="black" points="512.38,-428.52 501.93,-430.24 511.17,-435.41 512.38,-428.52"/>
<path fill="none" stroke="black" d="M634.19,-558.47C651.05,-545.46 672.76,-523.53 668.71,-499.07"/>
</g>
<!-- scipy_linalg&#45;&gt;alignfaces2_procrustes_tools -->
<g id="edge42" class="edge">
<title>scipy_linalg&#45;&gt;alignfaces2_procrustes_tools</title><style>.edge>path:hover{stroke-width:8}</style>
<path fill="none" stroke="black" d="M706.71,-421.48C688.63,-414.25 679.04,-394.07 674.02,-376.67"/>
<polygon fill="#9f3db8" stroke="black" points="677.39,-375.71 671.57,-366.86 670.6,-377.41 677.39,-375.71"/>
</g>
<!-- scipy_linalg&#45;&gt;alignfaces2_procrustes_tools_rohlf -->
<g id="edge43" class="edge">
<title>scipy_linalg&#45;&gt;alignfaces2_procrustes_tools_rohlf</title><style>.edge>path:hover{stroke-width:8}</style>
<path fill="none" stroke="black" d="M1054.22,-494.71C984.44,-489.19 828.21,-472.03 706.71,-423.48"/>
<path fill="none" stroke="black" d="M706.71,-421.48C694.13,-416.45 694.71,-408.97 682.71,-402.68 649.05,-385.02 608.74,-371.95 575.19,-363.01"/>
<polygon fill="#9f3db8" stroke="black" points="576.03,-359.61 565.47,-360.49 574.27,-366.39 576.03,-359.61"/>
</g>
<!-- scipy_spatial -->
<g id="node25" class="node">
<title>scipy_spatial</title><style>.edge>path:hover{stroke-width:8}</style>
<ellipse fill="#9f3db8" stroke="black" cx="456.71" cy="-571.87" rx="40.02" ry="18"/>
<text text-anchor="middle" x="456.71" y="-568.87" font-family="Helvetica,sans-Serif" font-size="10.00" fill="#ffffff">scipy.spatial</text>
</g>
<!-- scipy_spatial&#45;&gt;alignfaces2_warp_tools -->
<g id="edge44" class="edge">
<title>scipy_spatial&#45;&gt;alignfaces2_warp_tools</title><style>.edge>path:hover{stroke-width:8}</style>
<path fill="none" stroke="black" d="M456.71,-553.68C456.71,-528.92 456.71,-482.91 456.71,-452.75"/>
<polygon fill="#9f3db8" stroke="black" points="460.21,-452.42 456.71,-442.42 453.21,-452.42 460.21,-452.42"/>
</g>
<!-- skimage -->
<g id="node26" class="node">
<title>skimage</title><style>.edge>path:hover{stroke-width:8}</style>
<ellipse fill="#e72298" stroke="black" cx="954.71" cy="-346.88" rx="30.97" ry="18"/>
<text text-anchor="middle" x="954.71" y="-343.88" font-family="Helvetica,sans-Serif" font-size="10.00" fill="#ffffff">skimage</text>
</g>
<!-- skimage&#45;&gt;alignfaces2_aperture_tools -->
<g id="edge45" class="edge">
<title>skimage&#45;&gt;alignfaces2_aperture_tools</title><style>.edge>path:hover{stroke-width:8}</style>
<path fill="none" stroke="black" d="M953.55,-328.85C952.36,-312.5 950.31,-287.12 947.71,-265.21"/>
<path fill="none" stroke="black" d="M947.71,-263.21C946.01,-248.87 869.46,-214.91 818.18,-193.69"/>
<polygon fill="#e72298" stroke="black" points="819.5,-190.45 808.92,-189.89 816.84,-196.93 819.5,-190.45"/>
</g>
<!-- skimage&#45;&gt;alignfaces2_contrast_tools -->
<g id="edge46" class="edge">
<title>skimage&#45;&gt;alignfaces2_contrast_tools</title><style>.edge>path:hover{stroke-width:8}</style>
<path fill="none" stroke="black" d="M947.71,-263.21C945.09,-241.12 933.53,-218.85 922.79,-202.27"/>
<polygon fill="#e72298" stroke="black" points="925.48,-200 916.97,-193.69 919.68,-203.93 925.48,-200"/>
</g>
<!-- skimage&#45;&gt;alignfaces2_face_landmarks -->
<g id="edge47" class="edge">
<title>skimage&#45;&gt;alignfaces2_face_landmarks</title><style>.edge>path:hover{stroke-width:8}</style>
<path fill="none" stroke="black" d="M947.71,-263.21C945.24,-242.42 993.1,-214.32 1030.77,-195.58"/>
<polygon fill="#e72298" stroke="black" points="1032.64,-198.56 1040.09,-191.03 1029.57,-192.27 1032.64,-198.56"/>
</g>
<!-- skimage&#45;&gt;alignfaces2_make_aligned_faces -->
<g id="edge48" class="edge">
<title>skimage&#45;&gt;alignfaces2_make_aligned_faces</title><style>.edge>path:hover{stroke-width:8}</style>
<path fill="none" stroke="black" d="M985.71,-173.47C978.49,-161.16 977.9,-156.45 966.71,-147.6 946.17,-131.34 920.09,-119.06 896.76,-110.3"/>
<polygon fill="#e72298" stroke="black" points="897.89,-106.98 887.3,-106.87 895.51,-113.57 897.89,-106.98"/>
<path fill="none" stroke="black" d="M947.71,-263.21C942.7,-221.01 1007.22,-212.12 985.71,-175.47"/>
</g>
<!-- skimage_draw -->
<g id="node27" class="node">
<title>skimage_draw</title><style>.edge>path:hover{stroke-width:8}</style>
<ellipse fill="#b6538e" stroke="black" cx="1218.71" cy="-346.88" rx="44.71" ry="18"/>
<text text-anchor="middle" x="1218.71" y="-343.88" font-family="Helvetica,sans-Serif" font-size="10.00" fill="#ffffff">skimage.draw</text>
</g>
<!-- skimage_draw&#45;&gt;alignfaces2_face_landmarks -->
<g id="edge49" class="edge">
<title>skimage_draw&#45;&gt;alignfaces2_face_landmarks</title><style>.edge>path:hover{stroke-width:8}</style>
<path fill="none" stroke="black" d="M1250.83,-334.16C1310.64,-312.28 1432.98,-267.23 1431.71,-265.21"/>
<path fill="none" stroke="black" d="M1431.71,-263.21C1362.3,-152.71 1270,-237.8 1144.71,-201.34 1137.1,-199.12 1129.13,-196.49 1121.41,-193.76"/>
<polygon fill="#b6538e" stroke="black" points="1122.4,-190.4 1111.8,-190.29 1120.01,-196.98 1122.4,-190.4"/>
</g>
<!-- skimage_exposure -->
<g id="node28" class="node">
<title>skimage_exposure</title><style>.edge>path:hover{stroke-width:8}</style>
<ellipse fill="#c24791" stroke="black" cx="1043.71" cy="-346.88" rx="40.31" ry="19.6"/>
<text text-anchor="middle" x="1043.71" y="-348.88" font-family="Helvetica,sans-Serif" font-size="10.00" fill="#ffffff">skimage.</text>
<text text-anchor="middle" x="1043.71" y="-338.88" font-family="Helvetica,sans-Serif" font-size="10.00" fill="#ffffff">exposure</text>
</g>
<!-- skimage_exposure&#45;&gt;alignfaces2_contrast_tools -->
<g id="edge50" class="edge">
<title>skimage_exposure&#45;&gt;alignfaces2_contrast_tools</title><style>.edge>path:hover{stroke-width:8}</style>
<path fill="none" stroke="black" d="M1029.49,-328.32C1017.03,-312.43 998.88,-288.08 985.71,-265.21"/>
<path fill="none" stroke="black" d="M985.71,-263.21C971.74,-238.94 949.75,-216.12 931.92,-199.83"/>
<polygon fill="#c24791" stroke="black" points="933.86,-196.87 924.07,-192.83 929.2,-202.09 933.86,-196.87"/>
</g>
<!-- skimage_exposure&#45;&gt;alignfaces2_make_aligned_faces -->
<g id="edge51" class="edge">
<title>skimage_exposure&#45;&gt;alignfaces2_make_aligned_faces</title><style>.edge>path:hover{stroke-width:8}</style>
<path fill="none" stroke="black" d="M985.71,-263.21C966.25,-229.42 1005.45,-209.1 985.71,-175.47"/>
</g>
<!-- skimage_feature -->
<g id="node29" class="node">
<title>skimage_feature</title><style>.edge>path:hover{stroke-width:8}</style>
<ellipse fill="#b6538e" stroke="black" cx="1320.71" cy="-346.88" rx="39.72" ry="19.6"/>
<text text-anchor="middle" x="1320.71" y="-348.88" font-family="Helvetica,sans-Serif" font-size="10.00" fill="#ffffff">skimage.</text>
<text text-anchor="middle" x="1320.71" y="-338.88" font-family="Helvetica,sans-Serif" font-size="10.00" fill="#ffffff">feature</text>
</g>
<!-- skimage_feature&#45;&gt;alignfaces2_face_landmarks -->
<g id="edge52" class="edge">
<title>skimage_feature&#45;&gt;alignfaces2_face_landmarks</title><style>.edge>path:hover{stroke-width:8}</style>
<path fill="none" stroke="black" d="M1348.79,-332.82C1385.24,-314.97 1442.96,-283.11 1431.71,-265.21"/>
</g>
<!-- skimage_filters -->
<g id="node30" class="node">
<title>skimage_filters</title><style>.edge>path:hover{stroke-width:8}</style>
<ellipse fill="#b83d87" stroke="black" cx="827.71" cy="-346.88" rx="39.72" ry="19.6"/>
<text text-anchor="middle" x="827.71" y="-348.88" font-family="Helvetica,sans-Serif" font-size="10.00" fill="#ffffff">skimage.</text>
<text text-anchor="middle" x="827.71" y="-338.88" font-family="Helvetica,sans-Serif" font-size="10.00" fill="#ffffff">filters</text>
</g>
<!-- skimage_filters&#45;&gt;alignfaces2_aperture_tools -->
<g id="edge53" class="edge">
<title>skimage_filters&#45;&gt;alignfaces2_aperture_tools</title><style>.edge>path:hover{stroke-width:8}</style>
<path fill="none" stroke="black" d="M805.92,-330.19C788.37,-315.69 766.09,-292.34 762.71,-265.21"/>
</g>
<!-- skimage_io -->
<g id="node31" class="node">
<title>skimage_io</title><style>.edge>path:hover{stroke-width:8}</style>
<ellipse fill="#b6538e" stroke="black" cx="1534.71" cy="-264.21" rx="36.67" ry="18"/>
<text text-anchor="middle" x="1534.71" y="-261.21" font-family="Helvetica,sans-Serif" font-size="10.00" fill="#ffffff">skimage.io</text>
</g>
<!-- skimage_io&#45;&gt;alignfaces2_make_aligned_faces -->
<g id="edge54" class="edge">
<title>skimage_io&#45;&gt;alignfaces2_make_aligned_faces</title><style>.edge>path:hover{stroke-width:8}</style>
<path fill="none" stroke="black" d="M1525.95,-246.65C1515.02,-227.34 1494.69,-195.53 1469.71,-175.47"/>
</g>
<!-- skimage_morphology -->
<g id="node32" class="node">
<title>skimage_morphology</title><style>.edge>path:hover{stroke-width:8}</style>
<ellipse fill="#c24791" stroke="black" cx="1434.71" cy="-422.48" rx="48.02" ry="19.6"/>
<text text-anchor="middle" x="1434.71" y="-424.48" font-family="Helvetica,sans-Serif" font-size="10.00" fill="#ffffff">skimage.</text>
<text text-anchor="middle" x="1434.71" y="-414.48" font-family="Helvetica,sans-Serif" font-size="10.00" fill="#ffffff">morphology</text>
</g>
<!-- skimage_morphology&#45;&gt;alignfaces2_face_landmarks -->
<g id="edge55" class="edge">
<title>skimage_morphology&#45;&gt;alignfaces2_face_landmarks</title><style>.edge>path:hover{stroke-width:8}</style>
<path fill="none" stroke="black" d="M1513.71,-345.88C1511.94,-334.13 1503.3,-335.29 1494.71,-327.08 1466.34,-299.96 1452.59,-298.44 1431.71,-265.21"/>
<path fill="none" stroke="black" d="M1467.72,-407.63C1491.17,-395.35 1517.83,-375.12 1513.71,-347.88"/>
</g>
<!-- skimage_segmentation -->
<g id="node33" class="node">
<title>skimage_segmentation</title><style>.edge>path:hover{stroke-width:8}</style>
<ellipse fill="#b34c8a" stroke="black" cx="1431.71" cy="-346.88" rx="53.54" ry="19.6"/>
<text text-anchor="middle" x="1431.71" y="-348.88" font-family="Helvetica,sans-Serif" font-size="10.00" fill="#ffffff">skimage.</text>
<text text-anchor="middle" x="1431.71" y="-338.88" font-family="Helvetica,sans-Serif" font-size="10.00" fill="#ffffff">segmentation</text>
</g>
<!-- skimage_morphology&#45;&gt;skimage_segmentation -->
<g id="edge56" class="edge">
<title>skimage_morphology&#45;&gt;skimage_segmentation</title><style>.edge>path:hover{stroke-width:8}</style>
<path fill="none" stroke="black" d="M1433.94,-402.52C1433.62,-394.71 1433.24,-385.48 1432.89,-376.86"/>
<polygon fill="#c24791" stroke="black" points="1436.39,-376.62 1432.48,-366.77 1429.39,-376.9 1436.39,-376.62"/>
</g>
<!-- skimage_segmentation&#45;&gt;alignfaces2_face_landmarks -->
<g id="edge57" class="edge">
<title>skimage_segmentation&#45;&gt;alignfaces2_face_landmarks</title><style>.edge>path:hover{stroke-width:8}</style>
<path fill="none" stroke="black" d="M1437.03,-327.04C1440.79,-309.62 1443.33,-283.71 1431.71,-265.21"/>
</g>
<!-- skimage_transform -->
<g id="node34" class="node">
<title>skimage_transform</title><style>.edge>path:hover{stroke-width:8}</style>
<ellipse fill="#c24791" stroke="black" cx="1694.71" cy="-346.88" rx="41.35" ry="19.6"/>
<text text-anchor="middle" x="1694.71" y="-348.88" font-family="Helvetica,sans-Serif" font-size="10.00" fill="#ffffff">skimage.</text>
<text text-anchor="middle" x="1694.71" y="-338.88" font-family="Helvetica,sans-Serif" font-size="10.00" fill="#ffffff">transform</text>
</g>
<!-- skimage_transform&#45;&gt;alignfaces2_face_landmarks -->
<g id="edge58" class="edge">
<title>skimage_transform&#45;&gt;alignfaces2_face_landmarks</title><style>.edge>path:hover{stroke-width:8}</style>
<path fill="none" stroke="black" d="M1469.71,-263.21C1455.2,-257.26 1459.69,-244.45 1445.71,-237.34 1325.65,-176.21 1275.69,-232.91 1144.71,-201.34 1136.65,-199.4 1128.25,-196.81 1120.18,-194.02"/>
<polygon fill="#c24791" stroke="black" points="1121.13,-190.64 1110.54,-190.55 1118.76,-197.23 1121.13,-190.64"/>
<path fill="none" stroke="black" d="M1663.99,-333.6C1657.67,-331.27 1651.01,-328.98 1644.71,-327.08 1576.59,-306.51 1548.15,-330.2 1488.71,-291.08 1476.79,-283.24 1482.91,-270.62 1469.71,-265.21"/>
</g>
<!-- skimage_transform&#45;&gt;alignfaces2_make_aligned_faces -->
<g id="edge59" class="edge">
<title>skimage_transform&#45;&gt;alignfaces2_make_aligned_faces</title><style>.edge>path:hover{stroke-width:8}</style>
<path fill="none" stroke="black" d="M1469.71,-263.21C1433.63,-248.41 1500.11,-199.89 1469.71,-175.47"/>
<path fill="none" stroke="black" d="M1469.71,-173.47C1387.52,-107.45 1077.32,-95.02 924.24,-92.98"/>
<polygon fill="#c24791" stroke="black" points="923.98,-89.47 913.94,-92.85 923.9,-96.47 923.98,-89.47"/>
</g>
</g>
</svg>
